# xmcd
#
# Track frame offsets: 
#        150
#        81887
#        96701
#        116247
#        130318
#        140056
#        144701
#        160540
#        175846
#        186311
#        203926
#        218200
#        237891
#        256465
#        270982
#        299272
#
# Disc length: 4649 seconds
#
# Revision: 0
# Processed by: cddbd v1.5.2PL0 Copyright (c) Steve Scherf et al.
# Submitted via: ExactAudioCopy v0.95b3
#
DISCID=fd122710
DTITLE=Jimi Hendrix  - Moonbeams and Fairytales - Disc 10
DYEAR=1900
DGENRE=
TTITLE0=Interview (Hans Schmidt)
TTITLE1=Stone Free
TTITLE2=Hey Joe
TTITLE3=Purple Haze
TTITLE4=Wild Thing
TTITLE5=Interview (Carsten Grolin)
TTITLE6=The Wind Cries Mary
TTITLE7=Purple Haze
TTITLE8=Introduction
TTITLE9=Foxy Lady
TTITLE10=Rock Me Baby
TTITLE11=Hey Joe
TTITLE12=Can You See Me
TTITLE13=Purple Haze
TTITLE14=Wild Thing
TTITLE15=Interview (Klas Burling)
EXTD=
EXTT0=
EXTT1=
EXTT2=
EXTT3=
EXTT4=
EXTT5=
EXTT6=
EXTT7=
EXTT8=
EXTT9=
EXTT10=
EXTT11=
EXTT12=
EXTT13=
EXTT14=
EXTT15=
PLAYORDER=
